<svg xmlns="http://www.w3.org/2000/svg" viewBox="0 0 20 20" fill="none">
  <path d="M2.5 6.25C2.5 5.28 3.28 4.5 4.25 4.5H8.4l1.5 1.75h5.85c0.97 0 1.75 0.78 1.75 1.75v0.9H2.5v-3.9Z" fill="#1a0c18" stroke="#00ff88" stroke-width="1.2"/>
  <path d="M2.9 8.9h14.2c0.72 0 1.15 0.82 0.78 1.44l-1.8 3.16c-0.32 0.55-0.91 0.9-1.55 0.9H5.47c-0.64 0-1.23-0.35-1.55-0.9l-1.8-3.16c-0.37-0.62 0.06-1.44 0.78-1.44Z" fill="#00ff88" opacity="0.35"/>
  <circle cx="7.5" cy="11" r="0.7" fill="#00ff88"/>
  <circle cx="10" cy="11" r="0.7" fill="#00ff88"/>
  <circle cx="12.5" cy="11" r="0.7" fill="#00ff88"/>
  <line x1="7.5" y1="11" x2="12.5" y2="11" stroke="#00ff88" stroke-width="0.4"/>
</svg>